HIERARCHY
ROOT reference
{
  OFFSET 0 0 0
  CHANNELS 6 Xposition Yposition Zposition Zrotation Xrotation Yrotation
  JOINT Hips
  {
    OFFSET 44.6805 85.9651 -20.1189
    CHANNELS 3 Zrotation Xrotation Yrotation
    JOINT RightUpLeg
    {
      OFFSET -9.20028 -1.61905 0.0313892
      CHANNELS 3 Zrotation Xrotation Yrotation
      JOINT RightLeg
      {
        OFFSET 0.0920446 -41.8676 0.113709
        CHANNELS 3 Zrotation Xrotation Yrotation
        JOINT RightFoot
        {
          OFFSET -0.78009 -42.2818 -0.985537
          CHANNELS 3 Zrotation Xrotation Yrotation
          End Site
          {
            OFFSET 0 -7.69 17.5
          }
        }
      }
    }
    JOINT LeftUpLeg
    {
      OFFSET 9.33559 -1.63058 -0.0435578
      CHANNELS 3 Zrotation Xrotation Yrotation
      JOINT LeftLeg
      {
        OFFSET 0.124601 -41.8685 -0.0153308
        CHANNELS 3 Zrotation Xrotation Yrotation
        JOINT LeftFoot
        {
          OFFSET -0.885525 -42.178 -0.480441
          CHANNELS 3 Zrotation Xrotation Yrotation
          End Site
          {
            OFFSET 0 -7.69 17.5
          }
        }
      }
    }
    JOINT Spine
    {
      OFFSET -0.030151 14.2977 0.0632059
      CHANNELS 3 Zrotation Xrotation Yrotation
      JOINT Spine1
      {
        OFFSET -0.0449239 9.71163 -4.69081e-05
        CHANNELS 3 Zrotation Xrotation Yrotation
        JOINT Spine2
        {
          OFFSET 0.0275009 10.1133 -0.0283136
          CHANNELS 3 Zrotation Xrotation Yrotation
          JOINT Spine3
          {
            OFFSET 0.0288761 9.7229 -0.000806902
            CHANNELS 3 Zrotation Xrotation Yrotation
            JOINT Neck
            {
              OFFSET -0.0518603 10.2949 0.241895
              CHANNELS 3 Zrotation Xrotation Yrotation
              JOINT Head
              {
                OFFSET -0.275401 9.55953 0.0709142
                CHANNELS 3 Zrotation Xrotation Yrotation
                End Site
                {
                  OFFSET 0 15.95 0
                }
              }
            }
            JOINT RightShoulder
            {
              OFFSET -3.17286 6.95881 0.00543218
              CHANNELS 3 Zrotation Xrotation Yrotation
              JOINT RightArm
              {
                OFFSET -12.7612 0.039846 0.0411956
                CHANNELS 3 Zrotation Xrotation Yrotation
                JOINT RightForeArm
                {
                  OFFSET -26.5517 0.0729849 0.08211
                  CHANNELS 3 Zrotation Xrotation Yrotation
                  JOINT RightHand
                  {
                    OFFSET -26.0042 -0.0197864 0.0403594
                    CHANNELS 3 Zrotation Xrotation Yrotation
                    JOINT RightHandThumb1
                    {
                      OFFSET -2.48905 0.190105 3.12053
                      CHANNELS 3 Zrotation Xrotation Yrotation
                      JOINT RightHandThumb2
                      {
                        OFFSET -3.68274 0 0
                        CHANNELS 3 Zrotation Xrotation Yrotation
                        JOINT RightHandThumb3
                        {
                          OFFSET -2.55832 0 0
                          CHANNELS 3 Zrotation Xrotation Yrotation
                          End Site
                          {
                            OFFSET -2.194 0 0
                          }
                        }
                      }
                    }
                    JOINT RightInHandIndex
                    {
                      OFFSET -3.22368 0.508421 1.97842
                      CHANNELS 3 Zrotation Xrotation Yrotation
                      JOINT RightHandIndex1
                      {
                        OFFSET -5.21684 -0.091368 0.999158
                        CHANNELS 3 Zrotation Xrotation Yrotation
                        JOINT RightHandIndex2
                        {
                          OFFSET -3.61937 0 0
                          CHANNELS 3 Zrotation Xrotation Yrotation
                          JOINT RightHandIndex3
                          {
                            OFFSET -2.0521 0 0
                            CHANNELS 3 Zrotation Xrotation Yrotation
                            End Site
                            {
                              OFFSET -1.805 0 0
                            }
                          }
                        }
                      }
                    }
                    JOINT RightInHandMiddle
                    {
                      OFFSET -3.38211 0.517263 0.756737
                      CHANNELS 3 Zrotation Xrotation Yrotation
                      JOINT RightHandMiddle1
                      {
                        OFFSET -5.17411 -0.084 0.313895
                        CHANNELS 3 Zrotation Xrotation Yrotation
                        JOINT RightHandMiddle2
                        {
                          OFFSET -3.94947 0 0
                          CHANNELS 3 Zrotation Xrotation Yrotation
                          JOINT RightHandMiddle3
                          {
                            OFFSET -2.47579 0 0
                            CHANNELS 3 Zrotation Xrotation Yrotation
                            End Site
                            {
                              OFFSET -1.975 0 0
                            }
                          }
                        }
                      }
                    }
                    JOINT RightInHandRing
                    {
                      OFFSET -3.36516 0.537895 -0.128947
                      CHANNELS 3 Zrotation Xrotation Yrotation
                      JOINT RightHandRing1
                      {
                        OFFSET -4.63474 -0.022105 -0.478947
                        CHANNELS 3 Zrotation Xrotation Yrotation
                        JOINT RightHandRing2
                        {
                          OFFSET -3.44238 0 0
                          CHANNELS 3 Zrotation Xrotation Yrotation
                          JOINT RightHandRing3
                          {
                            OFFSET -2.3881 0 0
                            CHANNELS 3 Zrotation Xrotation Yrotation
                            End Site
                            {
                              OFFSET -1.857 0 0
                            }
                          }
                        }
                      }
                    }
                    JOINT RightInHandPinky
                    {
                      OFFSET -3.16105 0.469368 -1.20179
                      CHANNELS 3 Zrotation Xrotation Yrotation
                      JOINT RightHandPinky1
                      {
                        OFFSET -4.14105 -0.022105 -1.09053
                        CHANNELS 3 Zrotation Xrotation Yrotation
                        JOINT RightHandPinky2
                        {
                          OFFSET -2.75653 0 0
                          CHANNELS 3 Zrotation Xrotation Yrotation
                          JOINT RightHandPinky3
                          {
                            OFFSET -1.74189 0 0
                            CHANNELS 3 Zrotation Xrotation Yrotation
                            End Site
                            {
                              OFFSET -1.645 0 0
                            }
                          }
                        }
                      }
                    }
                  }
                }
              }
            }
            JOINT LeftShoulder
            {
              OFFSET 3.22572 6.89245 -0.0537601
              CHANNELS 3 Zrotation Xrotation Yrotation
              JOINT LeftArm
              {
                OFFSET 12.8183 -0.0506887 -0.111983
                CHANNELS 3 Zrotation Xrotation Yrotation
                JOINT LeftForeArm
                {
                  OFFSET 26.4786 -0.0502099 0.0159937
                  CHANNELS 3 Zrotation Xrotation Yrotation
                  JOINT LeftHand
                  {
                    OFFSET 25.8931 -0.161185 0.0946899
                    CHANNELS 3 Zrotation Xrotation Yrotation
                    JOINT LeftHandThumb1
                    {
                      OFFSET 2.48905 0.190105 3.12053
                      CHANNELS 3 Zrotation Xrotation Yrotation
                      JOINT LeftHandThumb2
                      {
                        OFFSET 3.68274 0 0
                        CHANNELS 3 Zrotation Xrotation Yrotation
                        JOINT LeftHandThumb3
                        {
                          OFFSET 2.55832 0 0
                          CHANNELS 3 Zrotation Xrotation Yrotation
                          End Site
                          {
                            OFFSET 2.194 0 0
                          }
                        }
                      }
                    }
                    JOINT LeftInHandIndex
                    {
                      OFFSET 3.22368 0.508421 1.97842
                      CHANNELS 3 Zrotation Xrotation Yrotation
                      JOINT LeftHandIndex1
                      {
                        OFFSET 5.21684 -0.091368 0.999158
                        CHANNELS 3 Zrotation Xrotation Yrotation
                        JOINT LeftHandIndex2
                        {
                          OFFSET 3.61937 0 0
                          CHANNELS 3 Zrotation Xrotation Yrotation
                          JOINT LeftHandIndex3
                          {
                            OFFSET 2.0521 0 0
                            CHANNELS 3 Zrotation Xrotation Yrotation
                            End Site
                            {
                              OFFSET 1.805 0 0
                            }
                          }
                        }
                      }
                    }
                    JOINT LeftInHandMiddle
                    {
                      OFFSET 3.38211 0.517263 0.756737
                      CHANNELS 3 Zrotation Xrotation Yrotation
                      JOINT LeftHandMiddle1
                      {
                        OFFSET 5.17411 -0.084 0.313895
                        CHANNELS 3 Zrotation Xrotation Yrotation
                        JOINT LeftHandMiddle2
                        {
                          OFFSET 3.94947 0 0
                          CHANNELS 3 Zrotation Xrotation Yrotation
                          JOINT LeftHandMiddle3
                          {
                            OFFSET 2.47579 0 0
                            CHANNELS 3 Zrotation Xrotation Yrotation
                            End Site
                            {
                              OFFSET 1.975 0 0
                            }
                          }
                        }
                      }
                    }
                    JOINT LeftInHandRing
                    {
                      OFFSET 3.36516 0.537895 -0.128947
                      CHANNELS 3 Zrotation Xrotation Yrotation
                      JOINT LeftHandRing1
                      {
                        OFFSET 4.63474 -0.022105 -0.478947
                        CHANNELS 3 Zrotation Xrotation Yrotation
                        JOINT LeftHandRing2
                        {
                          OFFSET 3.44238 0 0
                          CHANNELS 3 Zrotation Xrotation Yrotation
                          JOINT LeftHandRing3
                          {
                            OFFSET 2.3881 0 0
                            CHANNELS 3 Zrotation Xrotation Yrotation
                            End Site
                            {
                              OFFSET 1.857 0 0
                            }
                          }
                        }
                      }
                    }
                    JOINT LeftInHandPinky
                    {
                      OFFSET 3.16105 0.469368 -1.20179
                      CHANNELS 3 Zrotation Xrotation Yrotation
                      JOINT LeftHandPinky1
                      {
                        OFFSET 4.14105 -0.022105 -1.09053
                        CHANNELS 3 Zrotation Xrotation Yrotation
                        JOINT LeftHandPinky2
                        {
                          OFFSET 2.75653 0 0
                          CHANNELS 3 Zrotation Xrotation Yrotation
                          JOINT LeftHandPinky3
                          {
                            OFFSET 1.74189 0 0
                            CHANNELS 3 Zrotation Xrotation Yrotation
                            End Site
                            {
                              OFFSET 1.645 0 0
                            }
                          }
                        }
                      }
                    }
                  }
                }
              }
            }
          }
        }
      }
    }
  }
}
MOTION
Frames: 2
Frame Time: 0.00833333
7.500000000000000000e+02 0.000000000000000000e+00 0.000000000000000000e+00 0.000000000000000000e+00 0.000000000000000000e+00 0.000000000000000000e+00 -5.371410945562998585e+00 1.632070045123453550e+00 1.201997539760786182e+01 -7.866399302434306406e+00 2.659322266735750873e+01 -9.419232123471237283e-01 1.816462179331360005e+00 -2.498173529545486105e+00 3.874893946874063744e+00 -9.530446400616074953e+00 -2.295537874434577574e+00 -3.721441600179002940e+00 -8.951451586450607678e+00 1.124479586392460995e+01 -6.725045657526066201e+00 3.325883936493632564e+00 3.667115153479282963e+00 -1.370710591312132998e+01 -1.284359081913903822e+01 3.789869907676969518e+00 -3.522877450154469070e+00 4.164348570355770107e+00 -3.460232351531888351e-01 2.265951595581019440e+00 1.092863430268042890e+00 -5.017646746855909390e-01 1.007876380910702530e+00 1.762542971120203417e+00 -1.293318269523709763e+00 1.633031606692795012e+00 5.112376235834259486e-01 1.251732541471338500e+00 -2.833800615659860522e-01 3.176468577432243379e+01 6.801628758533567520e+00 6.307758838186571460e+00 9.566350476280421233e+00 3.135994675217587346e+00 2.282212164033039503e+00 4.685715922525457433e-01 1.623000383796020518e+00 5.096089787432451779e+00 -1.313227051714894777e+01 -7.331656063193726647e-01 1.113231385654539496e+00 -1.525163188702837544e+02 -1.548125682339550169e+00 2.130532946586488663e+02 6.579331565686826089e+00 1.995118009307245366e+00 -4.725086175144623368e+00 0.000000000000000000e+00 0.000000000000000000e+00 0.000000000000000000e+00 4.485575864865546315e-15 -2.970380268615354964e-15 0.000000000000000000e+00 1.863076909004861491e-15 -2.828784012044334865e-15 0.000000000000000000e+00 4.651337467148325441e-15 2.283209626897553185e-16 2.151433070852347814e-15 0.000000000000000000e+00 0.000000000000000000e+00 0.000000000000000000e+00 0.000000000000000000e+00 -4.477825598649367218e-15 -1.573626940855866013e-15 0.000000000000000000e+00 3.804970598305993653e-15 3.704232813659588188e-14 4.651337467148325441e-15 2.283209626897553185e-16 2.151433070852347814e-15 0.000000000000000000e+00 1.875933683033872092e-15 -9.278856114190637564e-15 0.000000000000000000e+00 -9.080463585971478442e-16 -7.378974412586885603e-15 0.000000000000000000e+00 1.504006141764010981e-15 2.381289098885486753e-14 4.651337467148325441e-15 2.283209626897553185e-16 2.151433070852347814e-15 0.000000000000000000e+00 0.000000000000000000e+00 0.000000000000000000e+00 0.000000000000000000e+00 4.459779241940783409e-15 -6.769597203304564272e-15 0.000000000000000000e+00 -7.127393165329463082e-16 -2.843413846931551848e-15 4.651337467148325441e-15 2.283209626897553185e-16 2.151433070852347814e-15 0.000000000000000000e+00 0.000000000000000000e+00 0.000000000000000000e+00 0.000000000000000000e+00 2.104547325000103626e-16 -1.462831958467166850e-14 0.000000000000000000e+00 3.087030847999188260e-15 2.401623778760175116e-14 6.081486896904714001e+00 -1.664175407246112348e-01 2.595737189524487842e+00 -8.531650863715796618e+00 3.240337759804687856e+00 6.567461805051157064e+00 8.660302813423676582e+00 -2.903241530089060163e+01 -2.558667754045167086e+01 -4.463714911107703465e+00 1.784186576373314281e+01 1.583296675238183759e+01 0.000000000000000000e+00 0.000000000000000000e+00 0.000000000000000000e+00 1.512321232248460128e-14 3.571811792134927031e-15 0.000000000000000000e+00 6.625068650588033916e-15 -3.244739793720568175e-15 0.000000000000000000e+00 3.026823665031693648e-16 -4.908454565337735297e-15 7.258244336287181373e-15 0.000000000000000000e+00 0.000000000000000000e+00 0.000000000000000000e+00 0.000000000000000000e+00 1.401389975130909893e-14 -6.231781707566107720e-14 0.000000000000000000e+00 6.605979466128875938e-15 7.109742397691445693e-15 3.026823665031693648e-16 -4.908454565337735297e-15 7.258244336287181373e-15 0.000000000000000000e+00 -1.849951354442362280e-15 -1.429514151745230461e-14 0.000000000000000000e+00 1.242298382927441508e-14 -6.117894439734519759e-14 0.000000000000000000e+00 3.860135948331442026e-15 -1.553770037747673526e-15 3.026823665031693648e-16 -4.908454565337735297e-15 7.258244336287181373e-15 0.000000000000000000e+00 0.000000000000000000e+00 0.000000000000000000e+00 0.000000000000000000e+00 2.784451889334313266e-14 -1.559686982452587845e-13 0.000000000000000000e+00 9.589597098063292830e-16 2.954264137687089064e-15 3.026823665031693648e-16 -4.908454565337735297e-15 7.258244336287181373e-15 0.000000000000000000e+00 0.000000000000000000e+00 0.000000000000000000e+00 0.000000000000000000e+00 6.936648363028208164e-15 -2.596413096629612760e-14 0.000000000000000000e+00 4.606501419603464029e-15 2.987904819991353115e-15
7.500000000000000000e+02 0.000000000000000000e+00 0.000000000000000000e+00 0.000000000000000000e+00 0.000000000000000000e+00 0.000000000000000000e+00 -5.311275071764434585e+00 1.491630538447500376e+00 1.176276497286642453e+01 -7.449447984000062029e+00 2.649381783097474141e+01 -6.936835751648711135e-01 1.995858779342033040e+00 -2.575811837963723594e+00 3.649204090321903848e+00 -9.708539080761733331e+00 -1.955996278725134152e+00 -3.618519751824135433e+00 -8.676596881060001820e+00 1.134932610746686166e+01 -6.641146235250773522e+00 3.204229731186816199e+00 3.714613845117742841e+00 -1.343147598911703255e+01 -1.296653546160737669e+01 3.782829899896031467e+00 -3.516723936956727581e+00 3.989927579623562259e+00 -4.394550210705039373e-01 2.275093646463449026e+00 1.048876660274450145e+00 -5.087539541113733632e-01 1.002707998573408421e+00 1.691513730787704839e+00 -1.320481237113749984e+00 1.614067854886541031e+00 5.161655314219537605e-01 1.203254711083414641e+00 -3.110978004406652619e-01 3.191510433774126554e+01 6.173680662049345180e+00 5.966487792951649993e+00 9.531892618424160801e+00 2.952553192413494010e+00 2.463464162607737595e+00 3.963190092834177891e-01 1.698917316800385491e+00 5.154130056242514080e+00 -1.305283721514196671e+01 -9.834713199354054858e-01 1.011890699384482062e+00 -1.558180991202710572e+02 -1.633135327700249384e+00 2.180340159779886733e+02 6.629583313846788784e+00 1.917760230526813992e+00 -4.460914877781748444e+00 0.000000000000000000e+00 0.000000000000000000e+00 0.000000000000000000e+00 4.581920334804342825e-15 -3.018386393607118539e-15 0.000000000000000000e+00 1.757269032648475487e-15 -2.910056006371941653e-15 0.000000000000000000e+00 4.838305012386858447e-15 2.680148850752192664e-16 2.172853891647290552e-15 0.000000000000000000e+00 0.000000000000000000e+00 0.000000000000000000e+00 0.000000000000000000e+00 -4.450296366232310010e-15 -1.015782646426623420e-15 0.000000000000000000e+00 3.652227335864740916e-15 3.678982010859251072e-14 4.838305012386858447e-15 2.680148850752192664e-16 2.172853891647290552e-15 0.000000000000000000e+00 1.991489133629606318e-15 -9.222989188212640532e-15 0.000000000000000000e+00 -8.183788231449045510e-16 -6.678796538785298775e-15 0.000000000000000000e+00 1.524944410093340271e-15 2.386761522715423987e-14 4.838305012386858447e-15 2.680148850752192664e-16 2.172853891647290552e-15 0.000000000000000000e+00 0.000000000000000000e+00 0.000000000000000000e+00 0.000000000000000000e+00 4.594050879905671576e-15 -6.499814382196263114e-15 0.000000000000000000e+00 -5.397043968563599769e-16 -2.237847206360494344e-15 4.838305012386858447e-15 2.680148850752192664e-16 2.172853891647290552e-15 0.000000000000000000e+00 0.000000000000000000e+00 0.000000000000000000e+00 0.000000000000000000e+00 3.585309919045763172e-16 -1.439204119956642394e-14 0.000000000000000000e+00 3.317382879149382086e-15 2.510878771410420538e-14 6.108340924130038374e+00 -3.444174499523873778e-01 2.575782332959875909e+00 -8.391502595641894047e+00 3.187828116296870462e+00 6.485708482782074569e+00 8.472018047716392886e+00 -2.962831419158478141e+01 -2.645436610028637148e+01 -6.531349152577366368e+00 1.942148871366087093e+01 1.355285895736437496e+01 0.000000000000000000e+00 0.000000000000000000e+00 0.000000000000000000e+00 1.596076607623150410e-14 3.519398486390590428e-15 0.000000000000000000e+00 7.171620472576375029e-15 -3.225222365413056587e-15 0.000000000000000000e+00 2.158695303540018056e-16 -5.178440875248946783e-15 7.237728251605898039e-15 0.000000000000000000e+00 0.000000000000000000e+00 0.000000000000000000e+00 0.000000000000000000e+00 1.393619133623815379e-14 -6.197754085842317035e-14 0.000000000000000000e+00 6.560895853512968531e-15 7.773208040548071670e-15 2.158695303540018056e-16 -5.178440875248946783e-15 7.237728251605898039e-15 0.000000000000000000e+00 -1.815444754832204655e-15 -1.426293222315902467e-14 0.000000000000000000e+00 1.195890162393753219e-14 -5.958846430116884294e-14 0.000000000000000000e+00 3.752903586837383314e-15 -1.306633059189988881e-15 2.158695303540018056e-16 -5.178440875248946783e-15 7.237728251605898039e-15 0.000000000000000000e+00 0.000000000000000000e+00 0.000000000000000000e+00 0.000000000000000000e+00 2.819371002094789087e-14 -1.574785917722645935e-13 0.000000000000000000e+00 9.648214656867506506e-16 3.180569614522051660e-15 2.158695303540018056e-16 -5.178440875248946783e-15 7.237728251605898039e-15 0.000000000000000000e+00 0.000000000000000000e+00 0.000000000000000000e+00 0.000000000000000000e+00 6.873987221993456249e-15 -2.606327099829521105e-14 0.000000000000000000e+00 4.662609893025507450e-15 3.397869653053665768e-15
